<mxfile host="65bd71144e">
    <diagram name="Page-1" id="21jnijc0DjhG2oMBAwQu">
        <mxGraphModel dx="575" dy="464" grid="1" gridSize="10" guides="1" tooltips="1" connect="1" arrows="1" fold="1" page="1" pageScale="1" pageWidth="850" pageHeight="1100" math="0" shadow="0">
            <root>
                <mxCell id="0"/>
                <mxCell id="1" parent="0"/>
                <mxCell id="REuhs8FXzTRRus5Cn1nG-1" value="input 2 numbers, print the bigger" style="text;html=1;strokeColor=none;fillColor=none;align=center;verticalAlign=middle;whiteSpace=wrap;rounded=0;" parent="1" vertex="1">
                    <mxGeometry x="425" y="70" width="330" height="130" as="geometry"/>
                </mxCell>
                <mxCell id="REuhs8FXzTRRus5Cn1nG-15" value="" style="edgeStyle=orthogonalEdgeStyle;rounded=0;orthogonalLoop=1;jettySize=auto;html=1;" parent="1" source="REuhs8FXzTRRus5Cn1nG-2" target="REuhs8FXzTRRus5Cn1nG-4" edge="1">
                    <mxGeometry relative="1" as="geometry"/>
                </mxCell>
                <mxCell id="REuhs8FXzTRRus5Cn1nG-2" value="START" style="rounded=1;whiteSpace=wrap;html=1;" parent="1" vertex="1">
                    <mxGeometry x="190" y="30" width="120" height="60" as="geometry"/>
                </mxCell>
                <mxCell id="REuhs8FXzTRRus5Cn1nG-3" value="STOP" style="rounded=1;whiteSpace=wrap;html=1;" parent="1" vertex="1">
                    <mxGeometry x="200" y="540" width="120" height="60" as="geometry"/>
                </mxCell>
                <mxCell id="REuhs8FXzTRRus5Cn1nG-16" value="" style="edgeStyle=orthogonalEdgeStyle;rounded=0;orthogonalLoop=1;jettySize=auto;html=1;" parent="1" source="REuhs8FXzTRRus5Cn1nG-4" target="REuhs8FXzTRRus5Cn1nG-5" edge="1">
                    <mxGeometry relative="1" as="geometry"/>
                </mxCell>
                <mxCell id="REuhs8FXzTRRus5Cn1nG-4" value="&quot;Please enter&amp;nbsp;&lt;br&gt;number (0-1000)&quot;" style="shape=document;whiteSpace=wrap;html=1;boundedLbl=1;" parent="1" vertex="1">
                    <mxGeometry x="190" y="120" width="120" height="80" as="geometry"/>
                </mxCell>
                <mxCell id="REuhs8FXzTRRus5Cn1nG-17" value="" style="edgeStyle=orthogonalEdgeStyle;rounded=0;orthogonalLoop=1;jettySize=auto;html=1;" parent="1" source="REuhs8FXzTRRus5Cn1nG-5" target="REuhs8FXzTRRus5Cn1nG-6" edge="1">
                    <mxGeometry relative="1" as="geometry"/>
                </mxCell>
                <mxCell id="REuhs8FXzTRRus5Cn1nG-5" value="x" style="shape=card;whiteSpace=wrap;html=1;" parent="1" vertex="1">
                    <mxGeometry x="210" y="230" width="80" height="60" as="geometry"/>
                </mxCell>
                <mxCell id="REuhs8FXzTRRus5Cn1nG-7" style="edgeStyle=orthogonalEdgeStyle;rounded=0;orthogonalLoop=1;jettySize=auto;html=1;" parent="1" source="REuhs8FXzTRRus5Cn1nG-6" edge="1">
                    <mxGeometry relative="1" as="geometry">
                        <mxPoint x="120" y="380" as="targetPoint"/>
                    </mxGeometry>
                </mxCell>
                <mxCell id="REuhs8FXzTRRus5Cn1nG-9" value="YES" style="edgeLabel;html=1;align=center;verticalAlign=middle;resizable=0;points=[];" parent="REuhs8FXzTRRus5Cn1nG-7" vertex="1" connectable="0">
                    <mxGeometry x="-0.1813" y="5" relative="1" as="geometry">
                        <mxPoint as="offset"/>
                    </mxGeometry>
                </mxCell>
                <mxCell id="REuhs8FXzTRRus5Cn1nG-8" style="edgeStyle=orthogonalEdgeStyle;rounded=0;orthogonalLoop=1;jettySize=auto;html=1;" parent="1" source="REuhs8FXzTRRus5Cn1nG-6" edge="1">
                    <mxGeometry relative="1" as="geometry">
                        <mxPoint x="390" y="380" as="targetPoint"/>
                    </mxGeometry>
                </mxCell>
                <mxCell id="REuhs8FXzTRRus5Cn1nG-10" value="NO" style="edgeLabel;html=1;align=center;verticalAlign=middle;resizable=0;points=[];" parent="REuhs8FXzTRRus5Cn1nG-8" vertex="1" connectable="0">
                    <mxGeometry x="-0.0729" y="-2" relative="1" as="geometry">
                        <mxPoint as="offset"/>
                    </mxGeometry>
                </mxCell>
                <mxCell id="REuhs8FXzTRRus5Cn1nG-6" value="x &amp;lt; 10" style="rhombus;whiteSpace=wrap;html=1;" parent="1" vertex="1">
                    <mxGeometry x="195" y="330" width="110" height="100" as="geometry"/>
                </mxCell>
                <mxCell id="REuhs8FXzTRRus5Cn1nG-13" style="edgeStyle=orthogonalEdgeStyle;rounded=0;orthogonalLoop=1;jettySize=auto;html=1;" parent="1" source="REuhs8FXzTRRus5Cn1nG-11" target="REuhs8FXzTRRus5Cn1nG-3" edge="1">
                    <mxGeometry relative="1" as="geometry">
                        <Array as="points">
                            <mxPoint x="70" y="490"/>
                            <mxPoint x="260" y="490"/>
                        </Array>
                    </mxGeometry>
                </mxCell>
                <mxCell id="REuhs8FXzTRRus5Cn1nG-11" value="&quot;1 digit&quot;" style="shape=document;whiteSpace=wrap;html=1;boundedLbl=1;" parent="1" vertex="1">
                    <mxGeometry x="30" y="360" width="80" height="60" as="geometry"/>
                </mxCell>
                <mxCell id="REuhs8FXzTRRus5Cn1nG-14" style="edgeStyle=orthogonalEdgeStyle;rounded=0;orthogonalLoop=1;jettySize=auto;html=1;entryX=0.5;entryY=0;entryDx=0;entryDy=0;" parent="1" source="REuhs8FXzTRRus5Cn1nG-12" target="REuhs8FXzTRRus5Cn1nG-3" edge="1">
                    <mxGeometry relative="1" as="geometry">
                        <Array as="points">
                            <mxPoint x="440" y="490"/>
                            <mxPoint x="260" y="490"/>
                        </Array>
                    </mxGeometry>
                </mxCell>
                <mxCell id="REuhs8FXzTRRus5Cn1nG-12" value="&quot;2 digits&quot;" style="shape=document;whiteSpace=wrap;html=1;boundedLbl=1;" parent="1" vertex="1">
                    <mxGeometry x="410" y="460" width="80" height="60" as="geometry"/>
                </mxCell>
                <mxCell id="3" value="YES&lt;br&gt;" style="edgeStyle=none;html=1;" edge="1" parent="1" source="2" target="REuhs8FXzTRRus5Cn1nG-12">
                    <mxGeometry relative="1" as="geometry"/>
                </mxCell>
                <mxCell id="5" value="NO" style="edgeStyle=none;html=1;" edge="1" parent="1" source="2" target="4">
                    <mxGeometry relative="1" as="geometry"/>
                </mxCell>
                <mxCell id="2" value="x &amp;lt; 100" style="rhombus;whiteSpace=wrap;html=1;" vertex="1" parent="1">
                    <mxGeometry x="395" y="330" width="110" height="100" as="geometry"/>
                </mxCell>
                <mxCell id="7" value="YES" style="edgeStyle=none;html=1;" edge="1" parent="1" source="4" target="6">
                    <mxGeometry relative="1" as="geometry"/>
                </mxCell>
                <mxCell id="14" value="" style="edgeStyle=none;html=1;" edge="1" parent="1" source="4" target="13">
                    <mxGeometry relative="1" as="geometry"/>
                </mxCell>
                <mxCell id="15" value="NO" style="edgeLabel;html=1;align=center;verticalAlign=middle;resizable=0;points=[];" vertex="1" connectable="0" parent="14">
                    <mxGeometry x="-0.4857" relative="1" as="geometry">
                        <mxPoint as="offset"/>
                    </mxGeometry>
                </mxCell>
                <mxCell id="4" value="x &amp;lt; 1000" style="rhombus;whiteSpace=wrap;html=1;" vertex="1" parent="1">
                    <mxGeometry x="550" y="330" width="110" height="100" as="geometry"/>
                </mxCell>
                <mxCell id="11" style="edgeStyle=none;html=1;" edge="1" parent="1" source="6" target="REuhs8FXzTRRus5Cn1nG-3">
                    <mxGeometry relative="1" as="geometry"/>
                </mxCell>
                <mxCell id="6" value="&quot;3 digits&quot;" style="shape=document;whiteSpace=wrap;html=1;boundedLbl=1;" vertex="1" parent="1">
                    <mxGeometry x="560" y="460" width="90" height="90" as="geometry"/>
                </mxCell>
                <mxCell id="16" style="edgeStyle=none;html=1;entryX=1;entryY=0.75;entryDx=0;entryDy=0;" edge="1" parent="1" source="13" target="REuhs8FXzTRRus5Cn1nG-3">
                    <mxGeometry relative="1" as="geometry"/>
                </mxCell>
                <mxCell id="17" style="edgeStyle=none;html=1;" edge="1" parent="1" source="13">
                    <mxGeometry relative="1" as="geometry">
                        <mxPoint x="330" y="590.6944580078125" as="targetPoint"/>
                    </mxGeometry>
                </mxCell>
                <mxCell id="13" value="&quot;4 digits&quot;" style="shape=document;whiteSpace=wrap;html=1;boundedLbl=1;" vertex="1" parent="1">
                    <mxGeometry x="700" y="340" width="90" height="90" as="geometry"/>
                </mxCell>
            </root>
        </mxGraphModel>
    </diagram>
</mxfile>